<svg width="32" height="32" viewBox="0 0 32 32" xmlns="http://www.w3.org/2000/svg">
  <!-- Official Verbier Festival logo as favicon -->
  <rect width="32" height="32" fill="white"/>
  <g transform="translate(3, 3) scale(0.245)">
    <path d="M97.775 20.495C94.08 10.583 95.21.583 95.255.278l.043-.131h-4.215l-35.2 85.715L25.03.147h-4.085l32.722 91.13-3.563 8.689L13.384.146H0L39.153 105.25H51.67l.39-.917 2.956-7.117 1.998-4.847 24.9-59.996c10.82 4.934 22.51 20.26 12.776 41.482-3.65 7.903-11.602 14.453-11.602 14.453l3.694-.699c11.515-9.65 16.426-19.3 17.99-31.919 1.521-12.62-2.433-23.012-6.996-35.194z" 
          fill="#0C4DA2"/>
  </g>
</svg>